<?xml version="1.0" encoding="UTF-8" standalone="no" ?>
<!DOCTYPE svg PUBLIC "-//W3C//DTD SVG 1.1//EN" "http://www.w3.org/Graphics/SVG/1.1/DTD/svg11.dtd">
<svg xmlns="http://www.w3.org/2000/svg" xmlns:xlink="http://www.w3.org/1999/xlink" version="1.1" width="146" height="38" viewBox="0 0 146 38" xml:space="preserve">
<desc>Created with Fabric.js 5.2.4</desc>
<defs>
</defs>
<rect x="0" y="0" width="100%" height="100%" fill="transparent"></rect>
<g transform="matrix(1 0 0 1 73 19)" id="aed23d56-af53-44ad-8d9b-2c49ed94ed11"  >
<rect style="stroke: none; stroke-width: 1; stroke-dasharray: none; stroke-linecap: butt; stroke-dashoffset: 0; stroke-linejoin: miter; stroke-miterlimit: 4; fill: rgb(25,12,56); fill-rule: nonzero; opacity: 1; visibility: hidden;" vector-effect="non-scaling-stroke"  x="-73" y="-19" rx="0" ry="0" width="146" height="38" />
</g>
<g transform="matrix(Infinity NaN NaN Infinity 0 0)" id="61d7515a-c461-4594-b183-c7fe28438e44"  >
</g>
<g transform="matrix(0.15 0 0 0.15 73 19)"  >
<g style="" vector-effect="non-scaling-stroke"   >
		<g transform="matrix(1.33 0 0 -1.33 -329.43 -0.86)" id="path20" clip-path="url(#CLIPPATH_9)"  >
<clipPath id="CLIPPATH_9" >
	<path transform="matrix(1 0 0 1 247.07 -0.65) translate(-512, -384)" id="path14" d="M 0 768 L 1024 768 L 1024 0 L 0 0 Z" stroke-linecap="round" />
</clipPath>
<path style="stroke: none; stroke-width: 1; stroke-dasharray: none; stroke-linecap: butt; stroke-dashoffset: 0; stroke-linejoin: miter; stroke-miterlimit: 4; fill: rgb(0,129,201); fill-rule: nonzero; opacity: 1;" vector-effect="non-scaling-stroke"  transform=" translate(24.87, -55.41)" d="M 0 0 C -0.486 -3.079 -1.416 -5.634 -2.781 -7.665 C -4.149 -9.697 -5.8580000000000005 -11.359 -7.909000000000001 -12.652000000000001 C -9.96 -13.945 -12.263000000000002 -14.868000000000002 -14.812000000000001 -15.423000000000002 C -17.364 -15.978000000000002 -19.994 -16.254 -22.701 -16.254 C -27.382 -16.254 -31.653 -15.636000000000001 -35.522 -14.407000000000002 C -39.391999999999996 -13.178 -42.595 -11.238000000000001 -45.132 -8.589000000000002 C -47.669 -5.942000000000002 -49.468999999999994 -2.525000000000002 -50.531 1.6619999999999973 C -51.595 5.846999999999997 -51.647999999999996 10.957999999999997 -50.693999999999996 16.992999999999995 L -40.16 83.67 L -31.479 83.67 C -26.555999999999997 83.67 -22.462 83.27 -19.201 82.47 C -15.942 81.66799999999999 -13.412 80.346 -11.608 78.499 C -9.809000000000001 76.652 -8.725000000000001 74.15899999999999 -8.358 71.01899999999999 C -7.994000000000001 67.87799999999999 -8.169 64.02799999999999 -8.889000000000001 59.474999999999994 L -14.784 22.163999999999994 C -15.503 17.606999999999992 -14.886000000000001 14.498999999999995 -12.933 12.836999999999994 C -10.979 11.174999999999994 -7.5409999999999995 10.342999999999995 -2.613999999999999 10.342999999999995 L 1.6340000000000012 10.342999999999995 z M -1.121 109.806 C -1.508 107.356 -2.3280000000000003 105.09 -3.581 103.00699999999999 C -4.834 100.92299999999999 -6.412 99.11599999999999 -8.316 97.58699999999999 C -10.22 96.05699999999999 -12.353000000000002 94.83099999999999 -14.715 93.91399999999999 C -17.076 92.99499999999999 -19.549 92.53599999999999 -22.136 92.53599999999999 C -24.721999999999998 92.53599999999999 -27.049999999999997 92.99499999999999 -29.121 93.91399999999999 C -31.192999999999998 94.83099999999999 -32.938 96.05699999999999 -34.359 97.58699999999999 C -35.78 99.11599999999999 -36.819 100.92299999999999 -37.474000000000004 103.00699999999999 C -38.132000000000005 105.08999999999999 -38.264 107.356 -37.877 109.806 C -37.510000000000005 112.13199999999999 -36.666000000000004 114.369 -35.34 116.51299999999999 C -34.018 118.65499999999999 -32.402 120.493 -30.498000000000005 122.02199999999999 C -28.595000000000006 123.55199999999999 -26.461000000000006 124.77799999999999 -24.100000000000005 125.69699999999999 C -21.738000000000007 126.61399999999999 -19.264000000000003 127.076 -16.678000000000004 127.076 C -14.092000000000004 127.076 -11.765000000000004 126.61399999999999 -9.693000000000005 125.69699999999999 C -7.622000000000005 124.77799999999999 -5.875000000000005 123.55199999999999 -4.4550000000000045 122.02199999999999 C -3.0340000000000042 120.493 -2.0320000000000045 118.65499999999999 -1.4470000000000045 116.51299999999999 C -0.8620000000000045 114.36899999999999 -0.7530000000000046 112.13199999999999 -1.1210000000000044 109.806" stroke-linecap="round" />
</g>
		<g transform="matrix(1.33 0 0 -1.33 -213.68 23.03)" id="path24" clip-path="url(#CLIPPATH_10)"  >
<clipPath id="CLIPPATH_10" >
	<path transform="matrix(1 0 0 1 160.26 17.27) translate(-512, -384)" id="path14" d="M 0 768 L 1024 768 L 1024 0 L 0 0 Z" stroke-linecap="round" />
</clipPath>
<path style="stroke: none; stroke-width: 1; stroke-dasharray: none; stroke-linecap: butt; stroke-dashoffset: 0; stroke-linejoin: miter; stroke-miterlimit: 4; fill: rgb(0,129,201); fill-rule: nonzero; opacity: 1;" vector-effect="non-scaling-stroke"  transform=" translate(30.1, -52.27)" d="M 0 0 C -7.757 0 -12.847 1.506 -15.261 4.525 C -17.680999999999997 7.541 -18.275 12.93 -17.049 20.686999999999998 L -11.417 56.333999999999996 C -10.328 63.229 -10.798 68.24799999999999 -12.825 71.38799999999999 C -14.854 74.52799999999999 -18.822 76.09799999999998 -24.732999999999997 76.09799999999998 C -29.904999999999998 76.09799999999998 -34.07299999999999 74.46499999999999 -37.233999999999995 71.20299999999999 C -40.39999999999999 67.939 -42.474999999999994 63.16899999999999 -43.46699999999999 56.88899999999999 L -52.456 0 L -64.277 0 C -71.789 0 -77.293 1.599 -80.788 4.803 C -84.285 8.003 -85.448 13.299 -84.28099999999999 20.687 L -78.64899999999999 56.334 C -77.49999999999999 63.599000000000004 -75.28699999999999 70.21600000000001 -72.00199999999998 76.19 C -68.72099999999998 82.16199999999999 -64.53099999999998 87.241 -59.43599999999998 91.428 C -54.34199999999998 95.613 -48.41399999999998 98.845 -41.64999999999998 101.125 C -34.888999999999974 103.403 -27.44199999999998 104.542 -19.314999999999976 104.542 C -10.327999999999976 104.542 -2.8119999999999763 103.403 3.232000000000024 101.125 C 9.273000000000025 98.845 13.994000000000025 95.584 17.386000000000024 91.336 C 20.778000000000024 87.087 22.945000000000025 81.916 23.893000000000022 75.821 C 24.83700000000002 69.726 24.71800000000002 62.921 23.531000000000024 55.411 L 14.776 0 Z" stroke-linecap="round" />
</g>
		<g transform="matrix(1.33 0 0 -1.33 -68.87 7.76)" id="path28" clip-path="url(#CLIPPATH_11)"  >
<clipPath id="CLIPPATH_11" >
	<path transform="matrix(1 0 0 1 51.66 5.82) translate(-512, -384)" id="path14" d="M 0 768 L 1024 768 L 1024 0 L 0 0 Z" stroke-linecap="round" />
</clipPath>
<path style="stroke: none; stroke-width: 1; stroke-dasharray: none; stroke-linecap: butt; stroke-dashoffset: 0; stroke-linejoin: miter; stroke-miterlimit: 4; fill: rgb(0,129,201); fill-rule: nonzero; opacity: 1;" vector-effect="non-scaling-stroke"  transform=" translate(50.5, 51.35)" d="M 0 0 C -0.292 -1.847 -0.962 -3.758 -2.012 -5.726 C -3.0629999999999997 -7.697 -4.479 -9.451 -6.260999999999999 -10.99 C -8.046 -12.531 -10.189 -13.824 -12.692 -14.868 C -15.199 -15.917 -17.990000000000002 -16.438 -21.067 -16.438 L -55.049 -16.438 L -58.814 -40.266 L -13.933999999999997 -40.266 L -15.655999999999997 -51.163 C -16.414999999999996 -55.964999999999996 -18.499999999999996 -59.81399999999999 -21.912999999999997 -62.706999999999994 C -25.325999999999997 -65.60199999999999 -29.125999999999998 -67.047 -33.31099999999999 -67.047 L -62.31 -67.047 L -69.897 -115.07 L -86.8 -115.07 C -92.315 -115.07 -96.565 -113.65599999999999 -99.54599999999999 -110.82199999999999 C -102.52699999999999 -107.99099999999999 -103.55099999999999 -103.61899999999999 -102.61599999999999 -97.70799999999998 L -88.87199999999999 -10.71299999999998 C -86.43999999999998 4.67900000000002 -76.70999999999998 12.375000000000021 -59.682999999999986 12.375000000000021 L 1.956 12.375000000000021 Z" stroke-linecap="round" />
</g>
		<g transform="matrix(1.33 0 0 -1.33 43.19 24.87)" id="path32" clip-path="url(#CLIPPATH_12)"  >
<clipPath id="CLIPPATH_12" >
	<path transform="matrix(1 0 0 1 -32.39 18.66) translate(-512, -384)" id="path14" d="M 0 768 L 1024 768 L 1024 0 L 0 0 Z" stroke-linecap="round" />
</clipPath>
<path style="stroke: none; stroke-width: 1; stroke-dasharray: none; stroke-linecap: butt; stroke-dashoffset: 0; stroke-linejoin: miter; stroke-miterlimit: 4; fill: rgb(0,129,201); fill-rule: nonzero; opacity: 1;" vector-effect="non-scaling-stroke"  transform=" translate(12.12, -9.14)" d="M 0 0 L -7.019 0 C -13.668 0 -18.572000000000003 -0.831 -21.727 -2.493 C -24.884 -4.156 -26.734 -6.712999999999999 -27.278 -10.159 C -27.785 -13.362 -27.092 -15.792000000000002 -25.198999999999998 -17.454 C -23.308999999999997 -19.117 -19.897999999999996 -19.948 -14.972999999999997 -19.948 C -11.770999999999997 -19.948 -8.859999999999996 -19.057000000000002 -6.2369999999999965 -17.271 C -3.6169999999999964 -15.486 -1.9359999999999964 -12.254000000000001 -1.1959999999999962 -7.573 z M 33.714 2.955 C 32.254999999999995 -6.279999999999999 30.241999999999997 -13.944999999999999 27.68 -20.04 C 25.115 -26.136 21.636 -31.000999999999998 17.247 -34.632 C 12.855 -38.266 7.432 -40.818999999999996 0.9819999999999993 -42.298 C -5.471000000000001 -43.774 -13.313 -44.514 -22.547 -44.514 C -27.475 -44.514 -32.396 -43.899 -37.311 -42.673 C -42.227000000000004 -41.446000000000005 -46.577 -39.544000000000004 -50.353 -36.964 C -54.133 -34.384 -57.058 -31.067 -59.125 -27.017 C -61.195 -22.964 -61.772 -18.052 -60.86 -12.28 C -59.094 -1.1049999999999986 -53.513 7.336 -44.114000000000004 13.044000000000002 C -34.717000000000006 18.753 -20.781000000000006 21.610000000000003 -2.311000000000007 21.610000000000003 L 2.675999999999993 21.610000000000003 L 3.3549999999999933 25.913000000000004 C 4.024999999999993 30.150000000000006 2.8349999999999933 32.956 -0.20900000000000674 34.32900000000001 C -3.257000000000007 35.70000000000001 -8.288000000000007 36.38600000000001 -15.307000000000007 36.38600000000001 C -20.10900000000001 36.38600000000001 -24.248000000000008 36.11000000000001 -27.721000000000007 35.55600000000001 C -31.197000000000006 35.00100000000001 -34.236000000000004 34.26300000000001 -36.845000000000006 33.33900000000001 C -39.455000000000005 32.41500000000001 -41.824000000000005 31.244000000000014 -43.956 29.830000000000013 C -46.091 28.412000000000013 -48.205000000000005 26.903000000000013 -50.304 25.305000000000014 L -51.228 25.305000000000014 L -49.273 37.680000000000014 C -48.787000000000006 40.756000000000014 -47.474000000000004 43.80300000000001 -45.335 46.82200000000002 C -43.196 49.838000000000015 -40.213 52.548000000000016 -36.386 54.94900000000002 C -32.561 57.35100000000002 -27.887 59.25800000000002 -22.367000000000004 60.67500000000002 C -16.851000000000006 62.08900000000002 -10.459000000000005 62.79900000000002 -3.191000000000006 62.79900000000002 C 3.8269999999999937 62.79900000000002 10.058999999999994 61.90500000000002 15.501999999999995 60.12100000000002 C 20.944999999999993 58.33500000000002 25.380999999999993 55.62500000000002 28.809999999999995 51.99400000000002 C 32.236 48.36000000000002 34.623 43.77400000000002 35.962999999999994 38.23400000000002 C 37.30499999999999 32.693000000000026 37.38099999999999 26.164000000000023 36.19499999999999 18.655000000000022 z" stroke-linecap="round" />
</g>
		<g transform="matrix(1.33 0 0 -1.33 192.38 2.22)" id="path36" clip-path="url(#CLIPPATH_13)"  >
<clipPath id="CLIPPATH_13" >
	<path transform="matrix(1 0 0 1 -144.28 1.66) translate(-512, -384)" id="path14" d="M 0 768 L 1024 768 L 1024 0 L 0 0 Z" stroke-linecap="round" />
</clipPath>
<path style="stroke: none; stroke-width: 1; stroke-dasharray: none; stroke-linecap: butt; stroke-dashoffset: 0; stroke-linejoin: miter; stroke-miterlimit: 4; fill: rgb(0,129,201); fill-rule: nonzero; opacity: 1;" vector-effect="non-scaling-stroke"  transform=" translate(-26.96, 68.8)" d="M 0 0 C 3.939 0 7.203 -0.586 9.789 -1.755 C 12.373999999999999 -2.9269999999999996 14.370999999999999 -4.497 15.786999999999999 -6.465 C 17.198 -8.437 18.085 -10.620999999999999 18.444 -13.022 C 18.805 -15.423 18.779 -17.917 18.371 -20.503 L 9.236 -78.315 C 14.414000000000001 -72.035 19.654 -65.75399999999999 24.958 -59.474999999999994 C 30.259 -53.19499999999999 35.861 -47.34799999999999 41.768 -41.928 C 43.07 -40.699 44.313 -39.650999999999996 45.496 -38.788999999999994 C 46.677 -37.928 48.021 -37.217999999999996 49.525000000000006 -36.66499999999999 C 51.02700000000001 -36.10999999999999 52.723000000000006 -35.71099999999999 54.60900000000001 -35.46399999999999 C 56.49600000000001 -35.21799999999999 58.793000000000006 -35.093999999999994 61.50200000000001 -35.093999999999994 L 86.06800000000001 -35.093999999999994 L 85.92200000000001 -36.017999999999994 C 84.06600000000002 -37.61999999999999 81.21100000000001 -40.297999999999995 77.35700000000001 -44.05199999999999 C 73.50000000000001 -47.809999999999995 69.33800000000001 -51.93399999999999 64.87400000000001 -56.42799999999999 C 60.406000000000006 -60.92399999999999 55.99600000000001 -65.44899999999998 51.64600000000001 -70.00299999999999 C 47.293000000000006 -74.55999999999999 43.68400000000001 -78.49999999999999 40.82000000000001 -81.82399999999998 C 43.07500000000001 -86.25699999999998 45.37100000000001 -90.81399999999998 47.71200000000001 -95.49199999999999 C 50.049000000000014 -100.17299999999999 52.68400000000001 -104.54199999999999 55.613000000000014 -108.60699999999999 C 57.110000000000014 -110.82299999999998 58.46500000000001 -112.57799999999999 59.676000000000016 -113.87099999999998 C 60.887000000000015 -115.16399999999999 62.11100000000002 -116.17899999999997 63.35100000000001 -116.91699999999999 C 64.58800000000001 -117.65699999999998 65.88100000000001 -118.24299999999998 67.22900000000001 -118.67199999999998 C 68.57500000000002 -119.10499999999999 70.19700000000002 -119.56799999999998 72.09000000000002 -120.05799999999998 C 70.57800000000002 -125.72299999999998 67.73800000000001 -130.06399999999996 63.56800000000002 -133.07999999999998 C 59.39700000000002 -136.09799999999998 54.17200000000002 -137.605 47.893000000000015 -137.605 C 46.53500000000002 -137.605 45.07800000000002 -137.48 43.518000000000015 -137.236 C 41.95500000000001 -136.988 40.387000000000015 -136.589 38.81300000000002 -136.035 C 37.238000000000014 -135.48 35.75200000000002 -134.742 34.360000000000014 -133.81799999999998 C 32.96500000000001 -132.89399999999998 31.813000000000013 -131.81799999999998 30.900000000000013 -130.58499999999998 C 26.162000000000013 -123.93699999999998 22.014000000000014 -117.07399999999998 18.454000000000015 -109.99199999999998 C 14.891000000000014 -102.91199999999998 11.296000000000014 -95.67699999999998 7.661000000000016 -88.28899999999997 L 0.016000000000016 -136.68099999999998 L -13.837999999999983 -136.68099999999998 C -20.364999999999984 -136.68099999999998 -25.235999999999983 -134.773 -28.44699999999998 -130.956 C -31.66399999999998 -127.13999999999999 -32.78299999999998 -122.154 -31.810999999999982 -115.99399999999999 L -13.483 0 Z" stroke-linecap="round" />
</g>
		<g transform="matrix(1.33 0 0 -1.33 314.5 9.48)" id="path40" clip-path="url(#CLIPPATH_14)"  >
<clipPath id="CLIPPATH_14" >
	<path transform="matrix(1 0 0 1 -235.88 7.11) translate(-512, -384)" id="path14" d="M 0 768 L 1024 768 L 1024 0 L 0 0 Z" stroke-linecap="round" />
</clipPath>
<path style="stroke: none; stroke-width: 1; stroke-dasharray: none; stroke-linecap: butt; stroke-dashoffset: 0; stroke-linejoin: miter; stroke-miterlimit: 4; fill: rgb(0,129,201); fill-rule: nonzero; opacity: 1;" vector-effect="non-scaling-stroke"  transform=" translate(-27, 35.28)" d="M 0 0 C 0.738 4.678 2.57 8.834 5.495 12.467 C 8.421 16.099 11.822 19.209 15.7 21.795 C 18.32 23.518 21.293 25.088 24.613 26.505000000000003 C 27.932 27.919000000000004 31.45 28.629 35.163 28.629 L 38.876999999999995 28.629 L 34.967 3.879 L 64.703 3.879 L 62.735 -8.58 C 62.383 -10.811 61.535 -12.857 60.197 -14.716000000000001 C 58.854 -16.574 57.246 -18.187 55.369 -19.55 C 53.491 -20.912 51.473 -21.997 49.314 -22.802 C 47.153999999999996 -23.61 45.088 -24.011 43.12 -24.011 L 30.561 -24.011 L 24.799 -60.480999999999995 C 24.256999999999998 -63.903999999999996 24.822 -66.56299999999999 26.494 -68.45599999999999 C 28.163 -70.34899999999999 30.723 -71.29599999999999 34.172 -71.29599999999999 C 38.355999999999995 -71.29599999999999 41.619 -71.10999999999999 43.956999999999994 -70.74099999999999 C 46.291 -70.37199999999999 48.44299999999999 -69.81699999999998 50.40599999999999 -69.07899999999998 L 51.32999999999999 -69.07899999999998 L 49.157999999999994 -82.82199999999997 C 48.47299999999999 -87.16299999999997 45.806999999999995 -90.97599999999997 41.163999999999994 -94.25899999999997 C 36.51899999999999 -97.54399999999997 29.640999999999995 -99.18599999999998 20.528999999999993 -99.18599999999998 C 16.200999999999993 -99.18599999999998 11.964999999999993 -98.59999999999998 7.816999999999993 -97.43099999999998 C 3.667999999999993 -96.26299999999998 0.07999999999999297 -94.29099999999998 -2.9480000000000075 -91.52099999999999 C -5.977000000000007 -88.74999999999999 -8.179000000000007 -85.05599999999998 -9.553000000000008 -80.43799999999999 C -10.930000000000009 -75.82099999999998 -11.061000000000007 -70.00299999999999 -9.951000000000008 -62.98299999999999 z" stroke-linecap="round" />
</g>
</g>
</g>
</svg>